{"title":"Community S05E11 HDTV x264 AAC [GWC].mp4","uid":9886809,"size":87045496,"categoryP":"video","categoryS":"tv_shows","magnet":"?xt=urn:btih:3fe500cfbe4d04d07d9d759259a0d2115293b462&amp;dn=Community+S05E11+HDTV+x264+AAC+%5BGWC%5D.mp4&amp;tr=udp%3A%2F%2Ftracker.openbittorrent.com%3A80&amp;tr=udp%3A%2F%2Fopen.demonii.com%3A1337&amp;tr=udp%3A%2F%2Ftracker.coppersurfer.tk%3A6969&amp;tr=udp%3A%2F%2Fexodus.desync.com%3A6969","seeders":1,"leechers":0,"uploader":"canc232","files":1,"time":1396593353,"description":"Community S05E11 HDTV x264 AAC [GWC] \n\n\nSTORYLINE :\nA lawyer is scuppered when it is discovered that he has falsely claimed to have a bachelor's degree. He is suspended and enrolls himself into Community college. He forms a study group so that he can get closer to an attractive student. The study group includes a millionaire, a former drug addict, a former quarter-back, a single mother, and a film student. \n\n\nSCREENS : &lt;a href=&quot;\nhttp://i.imgur.com/QjZkIFP.jpg&quot; rel=&quot;nofollow&quot; target=&quot;_NEW&quot;&gt;\nhttp://i.imgur.com/QjZkIFP.jpg&lt;/a&gt; &lt;a href=&quot;\nhttp://i.imgur.com/hzcbgsk.jpg&quot; rel=&quot;nofollow&quot; target=&quot;_NEW&quot;&gt;\nhttp://i.imgur.com/hzcbgsk.jpg&lt;/a&gt; &lt;a href=&quot;\nhttp://i.imgur.com/ZnEjO1F.jpg&quot; rel=&quot;nofollow&quot; target=&quot;_NEW&quot;&gt;\nhttp://i.imgur.com/ZnEjO1F.jpg&lt;/a&gt;\n\n\nMEDIA INFO :\nGeneral \nFormat : MPEG-4 \nFormat profile : Base Media \nFile size : 83.0 MiB \nDuration : 20mn 44s \nOverall bit rate mode : Variable \nOverall bit rate : 559 Kbps \n\nVideo \nFormat : AVC \nFormat profile : &lt;a class=&quot;__cf_email__&quot; href=&quot;/cdn-cgi/l/email-protection&quot; data-cfemail=&quot;276f4e404f676b140917&quot;&gt;[email&amp;#160;protected]&lt;/a&gt;&lt;script cf-hash='f9e31' type=&quot;text/javascript&quot;&gt;\n/* &lt;![CDATA[ */!function(){try{var t=&quot;currentScript&quot;in document?document.currentScript:function(){for(var t=document.getElementsByTagName(&quot;script&quot;),e=t.length;e--;)if(t[e].getAttribute(&quot;cf-hash&quot;))return t[e]}();if(t&amp;&amp;t.previousSibling){var e,r,n,i,c=t.previousSibling,a=c.getAttribute(&quot;data-cfemail&quot;);if(a){for(e=&quot;&quot;,r=parseInt(a.substr(0,2),16),n=2;a.length-n;n+=2)i=parseInt(a.substr(n,2),16)^r,e+=String.fromCharCode(i);e=document.createTextNode(e),c.parentNode.replaceChild(e,c)}}}catch(u){}}();/* ]]&gt; */&lt;/script&gt; \nFormat settings, CABAC : Yes \nFormat settings, ReFrames : 4 frames \nDuration : 20mn 44s \nBit rate : 494 Kbps \nMaximum bit rate : 1 753 Kbps \nWidth : 720 pixels \nHeight : 404 pixels \nDisplay aspect ratio : 16:9 \nFrame rate : 23.976 fps \nStream size : 73.3 MiB (88%) \nTitle : Community S05E11 HDTV x264 AAC [GWC] \nWriting library : x264 core\n\nAudio \nFormat : AAC \nFormat profile : HE-AAC / LC \nDuration : 20mn 44s \nBit rate mode : Variable \nChannel(s) : 2 channels \nSampling rate : 48.0 KHz / 24.0 KHz \nStream size : 9.20 MiB (11%) \nLanguage : English ","torrent":{"xt":"urn:btih:3fe500cfbe4d04d07d9d759259a0d2115293b462","amp;dn":"Community+S05E11+HDTV+x264+AAC+%5BGWC%5D.mp4","amp;tr":["udp%3A%2F%2Ftracker.openbittorrent.com%3A80","udp%3A%2F%2Fopen.demonii.com%3A1337","udp%3A%2F%2Ftracker.coppersurfer.tk%3A6969","udp%3A%2F%2Fexodus.desync.com%3A6969"],"infoHash":"3fe500cfbe4d04d07d9d759259a0d2115293b462","infoHashBuffer":{"type":"Buffer","data":[63,229,0,207,190,77,4,208,125,157,117,146,89,160,210,17,82,147,180,98]},"announce":[],"urlList":[]}}